<?xml version="1.0" encoding="UTF-8"?>
<svg id="Layer_1" data-name="Layer 1" xmlns="http://www.w3.org/2000/svg" viewBox="0 0 468 180">
  <rect x="9" width="450" height="19.03"/>
  <rect width="26.79" height="180"/>
  <rect x="9" y="165.07" width="450" height="14.93"/>
  <rect x="447.67" width="20.33" height="180"/>
  <g>
    <g>
      <path d="M308.09,73.63c1.14,0,2.25-.76,3.32-2.23v-16.97h-5.67v13.15c0,2.7.19,4.38.57,5.05.38.67.97,1,1.77,1Z"/>
      <path d="M424.35,113.89c0-5.33-2.42-8-7.25-8-2.4,0-4.28.64-5.65,1.92-1.37,1.28-2.05,3.02-2.05,5.22v6.25h14.55c.27-2.37.4-4.17.4-5.4Z"/>
      <path d="M286.69,73.93c1.97,0,3.74-.66,5.32-1.97,1.58-1.32,2.64-2.64,3.17-3.97.53-1.33.8-3.17.8-5.5v-5.4c-6.17.23-10.23,1.16-12.2,2.77-1.97,1.62-2.95,3.96-2.95,7.02,0,2.23.59,3.97,1.77,5.2,1.18,1.23,2.54,1.85,4.07,1.85Z"/>
      <path d="M220.82,76.23c4.13,0,7.39-.94,9.77-2.82,2.15-1.7,3.86-5.07,5.13-10.08v-18.66l-21.75,31.57h6.85Z"/>
      <path d="M124.03,66.88c0,2.23.59,3.97,1.78,5.2,1.18,1.23,2.54,1.85,4.07,1.85,1.97,0,3.74-.66,5.32-1.97,1.58-1.32,2.64-2.64,3.17-3.97.53-1.33.8-3.17.8-5.5v-5.4c-6.17.23-10.23,1.16-12.2,2.77-1.97,1.62-2.95,3.96-2.95,7.02Z"/>
    </g>
    <path d="M15.72,7.95v162.96h434.42V7.95H15.72ZM312.69,28.08c1.08-1.07,2.36-1.6,3.83-1.6s2.74.52,3.82,1.57c1.08,1.05,1.63,2.33,1.63,3.83s-.54,2.86-1.6,3.9c-1.07,1.03-2.35,1.55-3.85,1.55s-2.79-.53-3.85-1.58c-1.07-1.05-1.6-2.34-1.6-3.87s.54-2.73,1.62-3.8ZM173.82,141.53c-2.58,2.6-5.79,3.9-9.62,3.9s-7.42-1.55-10.95-4.65l-3.37,3.4h-23.9v-2.55h7v-34.2h-7v-2.55h7.1c3.4,0,6.6-.25,9.6-.75v37.5h5.43l-.11-12.6h1.75c2.87,9.43,7.68,14.15,14.45,14.15,2.56,0,4.9-.82,7-2.45,2.1-1.63,3.15-3.55,3.15-5.75,0-1.83-.63-3.22-1.88-4.15-1.25-.93-4.62-1.8-10.12-2.6-9.37-1.37-14.05-5.53-14.05-12.5,0-3.43,1.26-6.31,3.77-8.62,2.52-2.32,5.6-3.48,9.23-3.48,3.83,0,7.05,1.27,9.65,3.8.66-.7,1.35-1.7,2.05-3h1.55v11.2h-2.05c-1.54-6.5-5.27-9.75-11.2-9.75-2.57,0-4.71.68-6.43,2.03-1.71,1.35-2.57,2.89-2.57,4.62,0,1.47.61,2.63,1.82,3.48,1.22.85,4.1,1.57,8.63,2.17,9.96,1.23,14.95,5.77,14.95,13.6,0,3.9-1.29,7.15-3.88,9.75ZM132.62,84.88c0-1.46.54-2.73,1.62-3.8,1.09-1.06,2.36-1.6,3.83-1.6s2.74.53,3.82,1.58c1.09,1.05,1.63,2.32,1.63,3.82s-.53,2.87-1.6,3.9c-1.07,1.04-2.35,1.55-3.85,1.55s-2.78-.52-3.85-1.57c-1.07-1.05-1.6-2.34-1.6-3.88ZM411.06,139.76c1.33,2.29,3.71,3.43,7.15,3.43,7.06,0,11.85-4.1,14.35-12.3h2.15c-1.1,4.97-3.19,8.63-6.25,11-3.07,2.37-6.49,3.55-10.25,3.55-5.37,0-10.04-1.99-14-5.98-3.97-3.98-5.95-8.99-5.95-15.02,0-3.46.69-6.58,2.04-9.39-.83.52-1.82.79-2.96.79-2.87,0-4.3-1.43-4.3-4.3l.2-2.15c0-.77-.35-1.15-1.05-1.15-1.1,0-2.5,1.48-4.2,4.45-1.7,2.97-2.55,7.5-2.55,13.6v15.35h8.3v2.55h-29.87c-5.2,0-8.48.2-9.85.6v-9.3h-.2c-3,6.2-7.72,9.3-14.15,9.3-3.7,0-6.68-.98-8.93-2.93-2.24-1.95-3.37-6.05-3.37-12.32v-22.1h-18.12v24.75c0,3.63.24,6.12.73,7.45.48,1.33,1.77,2,3.87,2,1.6,0,3.14-.53,4.62-1.6,1.49-1.07,2.61-2.72,3.38-4.95h2.15c-1.53,6.47-6.18,9.7-13.95,9.7-3.27,0-5.67-.59-7.2-1.78-1.53-1.18-2.47-2.64-2.82-4.37-.35-1.73-.53-4.08-.53-7.05v-24.15h-8.37v45.58h7.05v2.55h-23.95v-2.55h7.15v-8.83h-5.97c-5.2,0-8.49.2-9.85.6v-9.3h-.2c-3,6.2-7.72,9.3-14.15,9.3-3.7,0-6.68-.98-8.93-2.93-2.25-1.95-3.37-6.05-3.37-12.32v-22.1h-7.25c2.21,2.01,3.33,4.22,3.33,6.65,0,1.33-.46,2.53-1.38,3.6-.92,1.07-2.11,1.6-3.57,1.6s-2.63-.45-3.58-1.35c-.95-.9-1.42-2.08-1.42-3.55,0-1.03.4-2.05,1.22-3.05.82-1,1.23-1.68,1.23-2.05,0-.9-.62-1.69-1.85-2.37-1.24-.69-2.84-1.03-4.8-1.03-3.47,0-6.05.93-7.73,2.8-1.68,1.87-2.52,5.82-2.52,11.85s.15,10.49.47,13.37c.32,2.89,1.16,5.15,2.53,6.8,1.36,1.65,3.61,2.48,6.75,2.48,6.6,0,11.23-4.2,13.9-12.6h2.15c-1,4.83-2.97,8.52-5.9,11.05-2.94,2.53-6.47,3.8-10.6,3.8-5.64,0-10.4-2.09-14.3-6.28-3.9-4.18-5.85-8.99-5.85-14.42s2-10.52,6-14.75,8.96-6.35,14.9-6.35c2.63,0,4.96.42,6.99,1.25h21.03v26.4c0,4.13.25,6.99.75,8.57.5,1.59,1.78,2.38,3.85,2.38,3.06,0,5.9-1.64,8.5-4.93,2.6-3.28,3.9-8.22,3.9-14.82v-15.05h-8v-2.55h17.75v36.75h5.97v-50.57l-25.36.04v-2.55h6.45v-19.9c0-5.4-.15-9.24-.45-11.52-.3-2.28-1.8-3.43-4.5-3.43-2.89,0-5.34,1.25-7.32,3.73s-3.27,5.02-3.85,7.6c-.58,2.58-.87,6.81-.87,12.67v10.85h6.45v2.55h-23.25v-2.55h7.05v-10.07h-56.62v-2.55h6.65v-25c0-3.84-.24-6.49-.72-7.95-.49-1.47-1.75-2.2-3.78-2.2-3.23,0-6.14,1.66-8.72,4.97-2.59,3.32-3.88,7.78-3.88,13.38v16.8h6.55v2.55h-27.72c-4.64,0-7.4-2.67-8.3-8-3.9,5.33-8.47,8-13.7,8-3.47,0-6.24-.95-8.3-2.83-1.52-1.38-2.47-2.99-2.88-4.83v17.73h6.45v2.55h-22.59v-2.55h6.45v-19.9c0-5.4-.16-9.24-.45-11.52-.3-2.28-1.8-3.43-4.5-3.43-2.9,0-5.35,1.25-7.33,3.73-1.98,2.48-3.27,5.02-3.85,7.6s-.87,6.81-.87,12.67v10.85h6.45v2.55h-23.25v-2.55h7.05V26.6h-6.76l.24,13.73h-2.35c-3.34-10.43-9.22-15.65-17.65-15.65-4.67,0-8.29,1.29-10.88,3.87-2.58,2.59-3.87,5.26-3.87,8.03,0,2.57,1.07,4.75,3.22,6.55,2.15,1.8,6.08,3.19,11.78,4.17,5.7.99,10.04,2.19,13.02,3.6,2.99,1.42,5.5,3.78,7.55,7.08,2.05,3.3,3.08,7.08,3.08,11.35,0,6.57-2.14,12.03-6.43,16.4-4.28,4.36-9.59,6.55-15.92,6.55-5.17,0-10.32-1.92-15.45-5.75l-4.7,4.2h-1.75v-18.75h2.15c1.97,5.9,4.72,10.33,8.25,13.3,3.53,2.96,7.4,4.45,11.6,4.45s7.99-1.38,11.47-4.13c3.49-2.75,5.23-6.22,5.23-10.42,0-3.53-1.21-6.51-3.63-8.93s-6.33-4.08-11.75-5c-5.41-.91-9.57-1.98-12.47-3.2-2.9-1.21-5.38-3.33-7.45-6.35-2.07-3.01-3.1-6.35-3.1-10.02,0-5.07,1.8-9.59,5.4-13.58,3.6-3.98,8.48-5.97,14.65-5.97,5.16,0,9.98,1.63,14.45,4.9,1.23-1.17,2.3-1.53,3.2-3.1l2.07.12h6.5c4.5,0,7.85-.24,10.05-.74v37.29h.2c3.33-6.3,8-9.45,14-9.45,2.43,0,4.79.63,7.09,1.88,2.3,1.25,3.78,3.04,4.43,5.37.52,1.88.83,4.67.93,8.35,1.25-7.24,9.54-11.24,24.92-11.97v-5.1c0-4.17-.35-6.9-1.03-8.2-.68-1.3-2.52-1.95-5.52-1.95-5.4,0-8.1,1.03-8.1,3.1,0,.6.22,1.26.67,1.97.45.72.68,1.56.68,2.53,0,1.36-.45,2.4-1.35,3.12-.9.72-1.92,1.08-3.05,1.08-1.47,0-2.6-.46-3.4-1.38-.8-.92-1.2-1.99-1.2-3.22,0-2.67,1.56-4.91,4.67-6.73,3.12-1.81,7.46-2.72,13.03-2.72,4.46,0,7.73.51,9.8,1.55,2.06,1.03,3.34,2.31,3.82,3.85.48,1.53.73,3.7.73,6.5v18.4c0,2.7.19,4.38.57,5.05.38.66.98,1,1.78,1,1.2,0,2.36-.82,3.5-2.45h1.2c-.36,2-1.07,3.57-2.09,4.75h5.06v-34.2h-7.1v-2.55h4.55c4.5,0,8.59-.25,12.25-.75v9.75h.2c3.43-6.84,8.28-10.25,14.55-10.25,2.93,0,5.34.75,7.23,2.25,1.88,1.5,3.16,3.26,3.85,5.3.68,2.03,1.02,5.18,1.02,9.45v21h7.41l23.95-34.5h-6.85c-2.23,0-4.13.22-5.7.67-1.56.45-3.08,1.65-4.55,3.6-1.46,1.95-2.55,4.99-3.25,9.13h-2.05v-15.65h31.26v-12.58h-7.8v-2.55h7.5c4.5,0,7.85-.24,10.05-.74v37.29h.2c3.33-6.3,8-9.45,13.99-9.45,2.44,0,4.8.63,7.1,1.88,2.3,1.25,3.78,3.04,4.43,5.37.38,1.36.64,3.22.8,5.53,2.76-5.46,10.74-8.52,23.99-9.15v-5.1c0-4.17-.34-6.9-1.02-8.2-.69-1.3-2.53-1.95-5.53-1.95-5.4,0-8.1,1.03-8.1,3.1,0,.6.23,1.26.68,1.97.45.72.67,1.56.67,2.53,0,1.36-.45,2.4-1.35,3.12-.9.72-1.91,1.08-3.05,1.08-1.46,0-2.6-.46-3.4-1.38-.8-.92-1.2-1.99-1.2-3.22,0-2.67,1.56-4.91,4.68-6.73,3.12-1.81,7.46-2.72,13.02-2.72,4.47,0,7.74.51,9.8,1.55,2.07,1.03,3.34,2.31,3.83,3.85.48,1.53.72,3.7.72,6.5v2.7h5.78c3.4,0,6.6-.25,9.6-.75v37.5h6.55v2.54h-23.25v-2.54h7v-13.69c-1.44,2.34-3.8,3.54-7.13,3.54-4.63,0-7.4-2.67-8.3-8-3.9,5.33-8.46,8-13.7,8-3.46,0-6.23-.95-8.3-2.83-.74-.67-1.34-1.41-1.82-2.19v15.09l8.91-.04c4.6,0,7.95-.25,10.05-.75v17.12h8.37v-10.55c3.3,0,6.55-.28,9.75-.85v11.4l27.87.05v26.35c0,4.13.25,6.99.75,8.57.5,1.59,1.78,2.38,3.85,2.38,3.07,0,5.9-1.64,8.5-4.93,2.6-3.28,3.9-8.22,3.9-14.82v-15.05h-8v-2.55h17.75v36.75h11.87v-34.2h-8.1v-2.55h8.2c4.2,0,7.4-.22,9.6-.65v9.45h.2c2.33-6.3,5.78-9.45,10.35-9.45,2,0,3.6.61,4.82,1.83,1.22,1.21,1.83,2.69,1.83,4.42,0,.32-.04.62-.08.91.47-.6.97-1.19,1.52-1.76,3.89-4,8.39-6,13.53-6,4.46,0,8.37,1.58,11.72,4.75,3.35,3.17,5.14,7.55,5.38,13.15h-25.3c-.24,9.87.31,15.94,1.65,18.22Z"/>
  </g>
</svg>